<svg id="Layer_1" data-name="Layer 1" xmlns="http://www.w3.org/2000/svg" viewBox="0 0 220.67 557.1"><defs><style>.cls-1{fill:#bf1000;}.cls-2{fill:#4d4d4d;}.cls-3{fill:#878787;}.cls-4{fill:#00cae9;stroke:#ffe700;stroke-miterlimit:10;stroke-width:3px;}.cls-5{fill:#fff;}.cls-6{fill:#f26200;}.cls-7{fill:#939393;}</style></defs><title>rocket click</title><path class="cls-1" d="M159.74,256c-.82,20.94-13.25,69.14-13.25,69.14,23-17,24.06,23.9,24.06,23.9C208.14,230.46,159.74,256,159.74,256Z"/><path class="cls-1" d="M55.93,349.08S57,308.2,80,325.18c0,0-12.43-48.2-13.25-69.14C66.74,256,18.34,230.46,55.93,349.08Z"/><path class="cls-2" d="M138.54,109.62h0l0,0a.67.67,0,0,0,0-.16,1.25,1.25,0,0,0-.66-.93c-3.89-6.86-23.75-44-24.66-87.43a3.08,3.08,0,1,0-.1,0c-.91,43.38-20.7,80.44-24.64,87.39-.46.31-.72.64-.72,1a.7.7,0,0,0,0,.21c-2.13,2.17-20.84,23-20.81,84.51C67,259.32,84.52,323,84.52,323H142s17.42-63.66,17.4-128.85C159.38,132.79,140.76,111.89,138.54,109.62Zm-25.36,27.51a15,15,0,1,1-14.95,15A15,15,0,0,1,113.18,137.13Zm0,53.32a15,15,0,1,1-15,15A15,15,0,0,1,113.2,190.44Zm0,83.23a15,15,0,1,1,14.95-15A15,15,0,0,1,113.24,273.68Z"/><path class="cls-1" d="M88.5,108.44s21.62-21.74,49.4,0c0,0-19.21-28.41-24.66-87.43C113.23,21,109.16,73.94,88.5,108.44Z"/><circle class="cls-1" cx="113.2" cy="17.89" r="3.15"/><path class="cls-3" d="M118.83,108.48s57.82,20.16,15.82,206.16C134.66,314.64,143.16,170.81,118.83,108.48Z"/><circle class="cls-4" cx="113.2" cy="152.37" r="18.44"/><circle class="cls-4" cx="113.2" cy="207.25" r="18.44"/><circle class="cls-4" cx="113.2" cy="259.3" r="18.44"/><path class="cls-5" d="M120.75,138.5s-12.36,28.38-11.59,28.94C117.17,173.26,142.08,156.55,120.75,138.5Z"/><path class="cls-5" d="M120.75,193.25s-12.36,28.38-11.59,28.94C117.17,228,142.08,211.3,120.75,193.25Z"/><path class="cls-5" d="M120.75,244.86s-12.36,28.38-11.59,28.94C117.17,279.61,142.08,262.91,120.75,244.86Z"/><path class="cls-6" d="M131.81,328.23s4.19,11.43-1.28,22.85c0,0,.72-3.28-1.3-4.89a3.63,3.63,0,0,0-1.29-.65c-3.58-1,.24,14.19-12.91,28.39-13.16-14.18-9.36-29.42-12.94-28.38a3.74,3.74,0,0,0-1.29.65c-2,1.61-1.29,4.89-1.29,4.89-5.48-11.41-1.31-22.84-1.3-22.85H90.09s-6.19,17,1.93,33.89c0,0-1.08-4.87,1.91-7.25a5.47,5.47,0,0,1,1.92-1c5.31-1.54-.33,21,19.19,42.09,19.5-21.06,13.84-43.64,19.15-42.1a5.47,5.47,0,0,1,1.92,1c3,2.38,1.92,7.25,1.92,7.25,8.11-16.94,1.91-33.89,1.91-33.89Z"/><polygon class="cls-7" points="183.37 503.66 161.33 368.36 173.74 505.01 183.37 503.66"/><polygon class="cls-7" points="128.77 537.85 121.55 405.52 122.76 537.1 128.77 537.85"/><polygon class="cls-7" points="200.16 501.31 172.53 354.59 190.45 502.67 200.16 501.31"/><polygon class="cls-7" points="113.88 536 110.89 400.7 107.92 535.26 113.88 536"/><polygon class="cls-7" points="34.4 499.1 57.54 354.59 24.4 497.46 34.4 499.1"/><polygon class="cls-7" points="51.23 501.86 68.74 368.36 41.27 500.23 51.23 501.86"/></svg>