<svg xmlns="http://www.w3.org/2000/svg" viewBox="0 0 194.86 369.62"><defs><style>.cls-1{fill:#4d4d4d;}</style></defs><title>rocket</title><g id="Objects"><path class="cls-1" d="M146.08,264.77c-.82,20.94-13.25,69.14-13.25,69.14,23-17,24.06,23.9,24.06,23.9C194.49,239.19,146.08,264.77,146.08,264.77Z"/><path class="cls-1" d="M42.28,357.81s1.07-40.88,24.06-23.9c0,0-12.43-48.2-13.25-69.14C53.09,264.77,4.68,239.19,42.28,357.81Z"/><path class="cls-1" d="M124.88,118.34h0l0,0a.67.67,0,0,0,0-.16,1.25,1.25,0,0,0-.66-.93c-3.89-6.86-23.75-44-24.66-87.43a3.08,3.08,0,1,0-.1,0c-.91,43.38-20.7,80.44-24.64,87.39-.46.31-.72.64-.72,1a.7.7,0,0,0,0,.21c-2.13,2.17-20.84,23-20.81,84.51,0,65.19,17.51,128.84,17.51,128.84h57.49s17.42-63.66,17.4-128.85C145.72,141.51,127.11,120.62,124.88,118.34ZM99.52,145.85a15,15,0,1,1-14.95,15A15,15,0,0,1,99.52,145.85Zm0,53.32a15,15,0,1,1-15,15A15,15,0,0,1,99.55,199.17Zm0,83.23a15,15,0,1,1,14.95-15A15,15,0,0,1,99.58,282.4Z"/></g></svg>